Coordinates
version=1
nRows=21
nColumns=12
inDegrees=yes

Units are S.I. units (second, meters, Newtons, ...)
Angles are in degrees

endheader
time	SC_y	SC_z	SC_x	AC_y	AC_z	AC_x	GH_y	GH_z	GH_yy	EL_x	PS_y
       0.0              -45.87          19.92          42.83          46.73         -14.58          -9.88           35.9          59.82          149.3          78.56          16.32
    0.0452              -45.87          19.91          42.83          46.73         -14.58         -9.877          35.88          59.81          149.3          78.56          16.32
    0.0904              -45.86          19.91          42.83          46.72         -14.58         -9.873          35.85           59.8          149.2          78.56          16.32
    0.1356              -45.86          19.91          42.83          46.72         -14.58         -9.869          35.82           59.8          149.2          78.56          16.32
    0.1808              -45.86          19.91          42.83          46.72         -14.58         -9.865          35.79          59.79          149.2          78.57          16.32
     0.226              -45.85           19.9          42.83          46.72         -14.57         -9.861          35.76          59.78          149.2          78.57          16.33
    0.2712              -45.85           19.9          42.83          46.72         -14.57         -9.856          35.73          59.77          149.2          78.57          16.33
    0.3164              -45.84           19.9          42.83          46.72         -14.57         -9.851          35.69          59.76          149.2          78.57          16.33
    0.3616              -45.84          19.89          42.83          46.72         -14.57         -9.846          35.65          59.75          149.1          78.58          16.33
    0.4068              -45.84          19.89          42.83          46.72         -14.56          -9.84          35.61          59.74          149.1          78.58          16.33
     0.452              -45.83          19.89          42.83          46.72         -14.56         -9.834          35.56          59.73          149.1          78.58          16.34
    0.4972              -45.82          19.88          42.83          46.72         -14.56         -9.827          35.51          59.72          149.1          78.58          16.34
    0.5424              -45.82          19.88          42.82          46.72         -14.55          -9.82          35.46           59.7          149.1          78.59          16.34
    0.5876              -45.81          19.87          42.82          46.72         -14.55         -9.813          35.41          59.69          149.0          78.59          16.34
    0.6328              -45.81          19.87          42.82          46.72         -14.55         -9.804          35.34          59.67          149.0          78.59          16.35
     0.678               -45.8          19.86          42.82          46.72         -14.54         -9.795          35.28          59.66          149.0           78.6          16.35
    0.7232              -45.79          19.85          42.82          46.72         -14.54         -9.785          35.21          59.64          148.9           78.6          16.35
    0.7684              -45.78          19.85          42.82          46.72         -14.53         -9.775          35.13          59.62          148.9          78.61          16.36
    0.8136              -45.77          19.84          42.82          46.72         -14.53         -9.763          35.04          59.59          148.8          78.61          16.36
    0.8588              -45.76          19.83          42.82          46.72         -14.52          -9.75          34.95          59.57          148.8          78.62          16.37
     0.904              -45.75          19.82          42.82          46.71         -14.52         -9.736          34.84          59.54          148.7          78.63          16.37
